# xmcd CD database file
#
# Track frame offsets:
#	150
#	24299
#	47503
#	76819
#	115863
#	136345
#	168506
#	194388
#	206114
#	221756
#	248147
#
# Disc length: 3500 seconds
#
# Revision: 0
# Processed by: cddbd v1.5.1PL0 Copyright (c) Steve Scherf et al.
# Submitted via: CDex 1.51
#
DISCID=940daa0b
DTITLE=Aldo ROMANO "Dreams and Water" - 1991 juin 02
DYEAR=1991
DGENRE=Jazz
TTITLE0=Link
TTITLE1=A Joao
TTITLE2=Softly
TTITLE3=Dreams and Water
TTITLE4=Fang Dance
TTITLE5=In A Silent Valley
TTITLE6=Palazzina Americana
TTITLE7=Dancing March
TTITLE8=Garibaldi
TTITLE9=Dance With Me
TTITLE10=El Fanguito
EXTD=YEAR: 1991
EXTT0=
EXTT1=
EXTT2=
EXTT3=
EXTT4=
EXTT5=
EXTT6=
EXTT7=
EXTT8=
EXTT9=
EXTT10=
PLAYORDER=
